<svg xmlns="http://www.w3.org/2000/svg" xmlns:xlink="http://www.w3.org/1999/xlink" xmlns:lucid="lucid" width="1829.03" height="1029.3"><g transform="translate(0 0)" lucid:page-tab-id="0_0"><path d="M0 0h1829.03v1029.3H0z" fill="#fff"/><path d="M440 76c0-4.42 3.58-8 8-8h836.75c4.42 0 8 3.58 8 8v25.16c0 4.4-3.58 8-8 8H448c-4.42 0-8-3.6-8-8z" stroke="#000" stroke-opacity="0" stroke-width="2" fill="#fff" fill-opacity="0"/><use xlink:href="#a" transform="matrix(1,0,0,1,444,71.99999999994924) translate(225.9383950617284 25.782777777777778)"/><use xlink:href="#b" transform="matrix(1,0,0,1,444,71.99999999994924) translate(289.8914814814815 25.782777777777778)"/><use xlink:href="#c" transform="matrix(1,0,0,1,444,71.99999999994924) translate(372.71 25.782777777777778)"/><use xlink:href="#d" transform="matrix(1,0,0,1,444,71.99999999994924) translate(388.6618518518518 25.782777777777778)"/><use xlink:href="#e" transform="matrix(1,0,0,1,444,71.99999999994924) translate(468.6396296296296 25.782777777777778)"/><use xlink:href="#f" transform="matrix(1,0,0,1,444,71.99999999994924) translate(536.9630864197532 25.782777777777778)"/><path d="M615.5 107.8h505.85M615.5 107.8h-1M1121.32 107.8h1.03" stroke="#a9afb8" stroke-width="2" fill="none"/><path d="M453.15 117.16c0-4.42 3.58-8 8-8h837.7c4.42 0 8 3.58 8 8V152c0 4.42-3.58 8-8 8h-837.7c-4.42 0-8-3.58-8-8z" stroke="#000" stroke-opacity="0" stroke-width="2" fill="#fff" fill-opacity="0"/><use xlink:href="#g" transform="matrix(1,0,0,1,457.1465527853434,113.15522395684805) translate(283.79950617283953 25.667037037037037)"/><use xlink:href="#h" transform="matrix(1,0,0,1,457.1465527853434,113.15522395684805) translate(328.75362139917695 25.667037037037037)"/><use xlink:href="#i" transform="matrix(1,0,0,1,457.1465527853434,113.15522395684805) translate(409.39909465020577 25.667037037037037)"/><use xlink:href="#j" transform="matrix(1,0,0,1,457.1465527853434,113.15522395684805) translate(451.67635802469135 25.667037037037037)"/><use xlink:href="#k" transform="matrix(1,0,0,1,457.1465527853434,113.15522395684805) translate(509.3348971193416 25.667037037037037)"/><path d="M340 680v251c0 2.76 2.24 5 5 5h324.1c2.77 0 5-2.24 5-5V680" fill="#fff"/><path d="M340 680v-35c0-2.76 2.24-5 5-5h324.1c2.77 0 5 2.24 5 5v35" fill="#ccc"/><path d="M340 645c0-2.76 2.24-5 5-5h324.1c2.77 0 5 2.24 5 5v286c0 2.76-2.23 5-5 5H345c-2.76 0-5-2.24-5-5zM340 680h334.1M507.05 680v256" stroke="#333" fill="none"/><use xlink:href="#l" transform="matrix(1,0,0,1,350,640) translate(0 23.6)"/><use xlink:href="#m" transform="matrix(1,0,0,1,345,682.5) translate(0 17.1)"/><use xlink:href="#n" transform="matrix(1,0,0,1,512.051969373271,682.5) translate(0 17.1)"/><use xlink:href="#o" transform="matrix(1,0,0,1,512.051969373271,682.5) translate(29 17.1)"/><use xlink:href="#p" transform="matrix(1,0,0,1,512.051969373271,682.5) translate(39.95 17.1)"/><use xlink:href="#q" transform="matrix(1,0,0,1,345,714.5) translate(0 17.1)"/><use xlink:href="#r" transform="matrix(1,0,0,1,512.051969373271,714.5) translate(0 17.1)"/><use xlink:href="#s" transform="matrix(1,0,0,1,345,746.5) translate(0 17.1)"/><use xlink:href="#r" transform="matrix(1,0,0,1,512.051969373271,746.5) translate(0 17.1)"/><use xlink:href="#t" transform="matrix(1,0,0,1,345,778.5) translate(0 17.1)"/><use xlink:href="#r" transform="matrix(1,0,0,1,512.051969373271,778.5) translate(0 17.1)"/><use xlink:href="#u" transform="matrix(1,0,0,1,345,810.5) translate(0 17.1)"/><use xlink:href="#r" transform="matrix(1,0,0,1,512.051969373271,810.5) translate(0 17.1)"/><use xlink:href="#v" transform="matrix(1,0,0,1,345,842.5) translate(0 17.1)"/><use xlink:href="#r" transform="matrix(1,0,0,1,512.051969373271,842.5) translate(0 17.1)"/><use xlink:href="#w" transform="matrix(1,0,0,1,345,874.5) translate(0 17.1)"/><use xlink:href="#r" transform="matrix(1,0,0,1,512.051969373271,874.5) translate(0 17.1)"/><use xlink:href="#x" transform="matrix(1,0,0,1,345,906.5) translate(0 17.1)"/><use xlink:href="#y" transform="matrix(1,0,0,1,512.051969373271,906.5) translate(0 17.1)"/><use xlink:href="#z" transform="matrix(1,0,0,1,512.051969373271,906.5) translate(27.950000000000003 17.1)"/><use xlink:href="#A" transform="matrix(1,0,0,1,512.051969373271,906.5) translate(38.900000000000006 17.1)"/><path d="M760 224v283c0 2.76 2.24 5 5 5h270c2.76 0 5-2.24 5-5V224" fill="#fff"/><path d="M760 224v-35c0-2.76 2.24-5 5-5h270c2.76 0 5 2.24 5 5v35" fill="#ccc"/><path d="M760 189c0-2.76 2.24-5 5-5h270c2.76 0 5 2.24 5 5v318c0 2.76-2.24 5-5 5H765c-2.76 0-5-2.24-5-5zM760 224h280M900 224v288" stroke="#333" fill="none"/><use xlink:href="#B" transform="matrix(1,0,0,1,770,184.00000000009106) translate(0 23.6)"/><use xlink:href="#x" transform="matrix(1,0,0,1,765,226.50000000009106) translate(0 17.1)"/><use xlink:href="#C" transform="matrix(1,0,0,1,905,226.50000000009106) translate(0 17.1)"/><use xlink:href="#z" transform="matrix(1,0,0,1,905,226.50000000009106) translate(29 17.1)"/><use xlink:href="#A" transform="matrix(1,0,0,1,905,226.50000000009106) translate(39.95 17.1)"/><use xlink:href="#D" transform="matrix(1,0,0,1,765,258.50000000009106) translate(0 17.1)"/><use xlink:href="#E" transform="matrix(1,0,0,1,905,258.50000000009106) translate(0 17.1)"/><use xlink:href="#F" transform="matrix(1,0,0,1,765,290.50000000009106) translate(0 17.1)"/><use xlink:href="#E" transform="matrix(1,0,0,1,905,290.50000000009106) translate(0 17.1)"/><use xlink:href="#G" transform="matrix(1,0,0,1,765,322.50000000009106) translate(0 17.1)"/><use xlink:href="#E" transform="matrix(1,0,0,1,905,322.50000000009106) translate(0 17.1)"/><use xlink:href="#H" transform="matrix(1,0,0,1,765,354.50000000009106) translate(0 17.1)"/><use xlink:href="#E" transform="matrix(1,0,0,1,905,354.50000000009106) translate(0 17.1)"/><use xlink:href="#I" transform="matrix(1,0,0,1,765,386.50000000009106) translate(0 17.1)"/><use xlink:href="#E" transform="matrix(1,0,0,1,905,386.50000000009106) translate(0 17.1)"/><use xlink:href="#J" transform="matrix(1,0,0,1,765,418.50000000009106) translate(0 17.1)"/><use xlink:href="#E" transform="matrix(1,0,0,1,905,418.50000000009106) translate(0 17.1)"/><use xlink:href="#K" transform="matrix(1,0,0,1,765,450.50000000009106) translate(0 17.1)"/><use xlink:href="#E" transform="matrix(1,0,0,1,905,450.50000000009106) translate(0 17.1)"/><use xlink:href="#L" transform="matrix(1,0,0,1,765,482.50000000009106) translate(0 17.1)"/><use xlink:href="#M" transform="matrix(1,0,0,1,905,482.50000000009106) translate(0 17.1)"/><use xlink:href="#o" transform="matrix(1,0,0,1,905,482.50000000009106) translate(27.950000000000003 17.1)"/><use xlink:href="#p" transform="matrix(1,0,0,1,905,482.50000000009106) translate(38.900000000000006 17.1)"/><path d="M307.05 224v59c0 2.76 2.24 5 5 5h270c2.76 0 5-2.24 5-5v-59" fill="#fff"/><path d="M307.05 224v-35c0-2.76 2.24-5 5-5h270c2.76 0 5 2.24 5 5v35" fill="#ccc"/><path d="M307.05 189c0-2.76 2.24-5 5-5h270c2.76 0 5 2.24 5 5v94c0 2.76-2.24 5-5 5h-270c-2.76 0-5-2.24-5-5zM307.05 224h280M447.05 224v64" stroke="#333" fill="none"/><use xlink:href="#N" transform="matrix(1,0,0,1,317.05196937327105,184.00000000009106) translate(0 23.6)"/><use xlink:href="#O" transform="matrix(1,0,0,1,312.05196937327105,226.50000000009106) translate(0 17.1)"/><use xlink:href="#C" transform="matrix(1,0,0,1,452.05196937327105,226.50000000009106) translate(0 17.1)"/><use xlink:href="#z" transform="matrix(1,0,0,1,452.05196937327105,226.50000000009106) translate(29 17.1)"/><use xlink:href="#A" transform="matrix(1,0,0,1,452.05196937327105,226.50000000009106) translate(39.95 17.1)"/><use xlink:href="#P" transform="matrix(1,0,0,1,312.05196937327105,258.50000000009106) translate(0 17.1)"/><use xlink:href="#Q" transform="matrix(1,0,0,1,452.05196937327105,258.50000000009106) translate(0 17.1)"/><path d="M1240 224v123c0 2.76 2.24 5 5 5h264.1c2.77 0 5-2.24 5-5V224" fill="#fff"/><path d="M1240 224v-35c0-2.76 2.24-5 5-5h264.1c2.77 0 5 2.24 5 5v35" fill="#ccc"/><path d="M1240 189c0-2.76 2.24-5 5-5h264.1c2.77 0 5 2.24 5 5v158c0 2.76-2.23 5-5 5H1245c-2.76 0-5-2.24-5-5zM1240 224h274.1M1377.05 224v128" stroke="#333" fill="none"/><use xlink:href="#R" transform="matrix(1,0,0,1,1250,184.00000000009106) translate(0 23.6)"/><use xlink:href="#S" transform="matrix(1,0,0,1,1245,226.50000000009106) translate(0 17.1)"/><use xlink:href="#C" transform="matrix(1,0,0,1,1382.051969373271,226.50000000009106) translate(0 17.1)"/><use xlink:href="#z" transform="matrix(1,0,0,1,1382.051969373271,226.50000000009106) translate(29 17.1)"/><use xlink:href="#A" transform="matrix(1,0,0,1,1382.051969373271,226.50000000009106) translate(39.95 17.1)"/><use xlink:href="#T" transform="matrix(1,0,0,1,1245,258.50000000009106) translate(0 17.1)"/><use xlink:href="#r" transform="matrix(1,0,0,1,1382.051969373271,258.50000000009106) translate(0 17.1)"/><use xlink:href="#U" transform="matrix(1,0,0,1,1245,290.50000000009106) translate(0 17.1)"/><use xlink:href="#V" transform="matrix(1,0,0,1,1382.051969373271,290.50000000009106) translate(0 17.1)"/><use xlink:href="#W" transform="matrix(1,0,0,1,1245,322.50000000009106) translate(0 17.1)"/><use xlink:href="#M" transform="matrix(1,0,0,1,1382.051969373271,322.50000000009106) translate(0 17.1)"/><use xlink:href="#o" transform="matrix(1,0,0,1,1382.051969373271,322.50000000009106) translate(27.950000000000003 17.1)"/><use xlink:href="#p" transform="matrix(1,0,0,1,1382.051969373271,322.50000000009106) translate(38.900000000000006 17.1)"/><path d="M607.55 240H720" stroke="#333" fill="none"/><path d="M607.55 250v-20M587.55 240h20" stroke="#333" fill="#fff"/><path d="M759.28 250l-20-10 20-10" stroke="#333" fill="#fff" fill-opacity="0"/><path d="M759.28 240h-20M739.28 240c0 5.52-4.48 10-10 10-5.53 0-10-4.48-10-10s4.47-10 10-10c5.52 0 10 4.48 10 10" stroke="#333" fill="#fff"/><path d="M759.5 240" stroke="#333" fill="none"/><path d="M739.5 230v20M759.5 240h-20" stroke="#333" fill="#fff"/><path d="M759.28 250l-20-10 20-10" stroke="#333" fill="#fff" fill-opacity="0"/><path d="M759.28 240h-20" stroke="#333" fill="#fff"/><path d="M1060.5 253.33h159" stroke="#333" fill="none"/><path d="M1050.5 263.33v-20M1040.5 253.33h20M1060.5 263.33v-20M1229.5 243.33v20M1239.5 253.33h-20M1219.5 243.33v20" stroke="#333" fill="#fff"/><path d="M900 532.5V564c0 6.63-5.37 12-12 12H519.05c-6.63 0-12 5.37-12 12v32.1" stroke="#333" fill="none"/><path d="M890 532.5h20M900 512.5v20" stroke="#333" fill="#fff"/><path d="M497.05 639.28l10-20 10 20" stroke="#333" fill="#fff" fill-opacity="0"/><path d="M507.05 639.28v-20" stroke="#333" fill="#fff"/><path d="M1260 520v379c0 2.76 2.24 5 5 5h324.1c2.77 0 5-2.24 5-5V520" fill="#fff"/><path d="M1260 520v-35c0-2.76 2.24-5 5-5h324.1c2.77 0 5 2.24 5 5v35" fill="#ccc"/><path d="M1260 485c0-2.76 2.24-5 5-5h324.1c2.77 0 5 2.24 5 5v414c0 2.76-2.23 5-5 5H1265c-2.76 0-5-2.24-5-5zM1260 520h334.1M1427.05 520v384" stroke="#333" fill="none"/><use xlink:href="#X" transform="matrix(1,0,0,1,1270,480) translate(0 23.6)"/><use xlink:href="#Y" transform="matrix(1,0,0,1,1265,522.5) translate(0 17.1)"/><use xlink:href="#n" transform="matrix(1,0,0,1,1432.051969373271,522.5) translate(0 17.1)"/><use xlink:href="#o" transform="matrix(1,0,0,1,1432.051969373271,522.5) translate(29 17.1)"/><use xlink:href="#p" transform="matrix(1,0,0,1,1432.051969373271,522.5) translate(39.95 17.1)"/><use xlink:href="#Z" transform="matrix(1,0,0,1,1265,554.5) translate(0 17.1)"/><use xlink:href="#r" transform="matrix(1,0,0,1,1432.051969373271,554.5) translate(0 17.1)"/><use xlink:href="#aa" transform="matrix(1,0,0,1,1265,586.5) translate(0 17.1)"/><use xlink:href="#r" transform="matrix(1,0,0,1,1432.051969373271,586.5) translate(0 17.1)"/><use xlink:href="#ab" transform="matrix(1,0,0,1,1265,618.5) translate(0 17.1)"/><use xlink:href="#r" transform="matrix(1,0,0,1,1432.051969373271,618.5) translate(0 17.1)"/><use xlink:href="#ac" transform="matrix(1,0,0,1,1265,650.5) translate(0 17.1)"/><use xlink:href="#r" transform="matrix(1,0,0,1,1432.051969373271,650.5) translate(0 17.1)"/><use xlink:href="#ad" transform="matrix(1,0,0,1,1265,682.5) translate(0 17.1)"/><use xlink:href="#r" transform="matrix(1,0,0,1,1432.051969373271,682.5) translate(0 17.1)"/><use xlink:href="#ae" transform="matrix(1,0,0,1,1265,714.5) translate(0 17.1)"/><use xlink:href="#r" transform="matrix(1,0,0,1,1432.051969373271,714.5) translate(0 17.1)"/><use xlink:href="#af" transform="matrix(1,0,0,1,1265,746.5) translate(0 17.1)"/><use xlink:href="#r" transform="matrix(1,0,0,1,1432.051969373271,746.5) translate(0 17.1)"/><use xlink:href="#ag" transform="matrix(1,0,0,1,1265,778.5) translate(0 17.1)"/><use xlink:href="#r" transform="matrix(1,0,0,1,1432.051969373271,778.5) translate(0 17.1)"/><use xlink:href="#ah" transform="matrix(1,0,0,1,1265,810.5) translate(0 17.1)"/><use xlink:href="#r" transform="matrix(1,0,0,1,1432.051969373271,810.5) translate(0 17.1)"/><use xlink:href="#ai" transform="matrix(1,0,0,1,1265,842.5) translate(0 17.1)"/><use xlink:href="#r" transform="matrix(1,0,0,1,1432.051969373271,842.5) translate(0 17.1)"/><use xlink:href="#x" transform="matrix(1,0,0,1,1265,874.5) translate(0 17.1)"/><use xlink:href="#M" transform="matrix(1,0,0,1,1432.051969373271,874.5) translate(0 17.1)"/><use xlink:href="#o" transform="matrix(1,0,0,1,1432.051969373271,874.5) translate(27.950000000000003 17.1)"/><use xlink:href="#p" transform="matrix(1,0,0,1,1432.051969373271,874.5) translate(38.900000000000006 17.1)"/><path d="M1060.5 400.2h354.55c6.63 0 12 5.36 12 12v47.9" stroke="#333" fill="none"/><path d="M1060.5 410.2v-20M1040.5 400.2h20" stroke="#333" fill="#fff"/><path d="M1417.05 479.28l10-20 10 20" stroke="#333" fill="#fff" fill-opacity="0"/><path d="M1427.05 479.28v-20" stroke="#333" fill="#fff"/><path d="M820 680v123c0 2.76 2.24 5 5 5h264.1c2.77 0 5-2.24 5-5V680" fill="#fff"/><path d="M820 680v-35c0-2.76 2.24-5 5-5h264.1c2.77 0 5 2.24 5 5v35" fill="#ccc"/><path d="M820 645c0-2.76 2.24-5 5-5h264.1c2.77 0 5 2.24 5 5v158c0 2.76-2.23 5-5 5H825c-2.76 0-5-2.24-5-5zM820 680h274.1M957.05 680v128" stroke="#333" fill="none"/><g><use xlink:href="#aj" transform="matrix(1,0,0,1,830,640) translate(0 23.6)"/></g><g><use xlink:href="#ak" transform="matrix(1,0,0,1,825,682.5) translate(0 17.1)"/></g><g><use xlink:href="#C" transform="matrix(1,0,0,1,962.051969373271,682.5) translate(0 17.1)"/><use xlink:href="#z" transform="matrix(1,0,0,1,962.051969373271,682.5) translate(29 17.1)"/><use xlink:href="#A" transform="matrix(1,0,0,1,962.051969373271,682.5) translate(39.95 17.1)"/></g><g><use xlink:href="#al" transform="matrix(1,0,0,1,825,714.5) translate(0 17.1)"/></g><g><use xlink:href="#r" transform="matrix(1,0,0,1,962.051969373271,714.5) translate(0 17.1)"/></g><g><use xlink:href="#am" transform="matrix(1,0,0,1,825,746.5) translate(0 17.1)"/></g><g><use xlink:href="#Q" transform="matrix(1,0,0,1,962.051969373271,746.5) translate(0 17.1)"/></g><g><use xlink:href="#W" transform="matrix(1,0,0,1,825,778.5) translate(0 17.1)"/></g><g><use xlink:href="#M" transform="matrix(1,0,0,1,962.051969373271,778.5) translate(0 17.1)"/><use xlink:href="#o" transform="matrix(1,0,0,1,962.051969373271,778.5) translate(27.950000000000003 17.1)"/><use xlink:href="#p" transform="matrix(1,0,0,1,962.051969373271,778.5) translate(38.900000000000006 17.1)"/></g><path d="M900 532.5V564c0 6.63 5.37 12 12 12h33.05c6.63 0 12 5.37 12 12v32.1" stroke="#333" fill="none"/><path d="M890 532.5h20M900 512.5v20" stroke="#333" fill="#fff"/><path d="M947.05 639.28l10-20 10 20" stroke="#333" fill="#fff" fill-opacity="0"/><path d="M957.05 639.28v-20" stroke="#333" fill="#fff"/><defs><path fill="#a9afb8" d="M24-248c120-7 223 5 221 122C244-46 201 0 124 0H24v-248zM76-40c74 7 117-18 117-86 0-67-45-88-117-82v168" id="an"/><path fill="#a9afb8" d="M133-34C117-15 103 5 69 4 32 3 11-16 11-54c-1-60 55-63 116-61 1-26-3-47-28-47-18 1-26 9-28 27l-52-2c7-38 36-58 82-57s74 22 75 68l1 82c-1 14 12 18 25 15v27c-30 8-71 5-69-32zm-48 3c29 0 43-24 42-57-32 0-66-3-65 30 0 17 8 27 23 27" id="ao"/><path fill="#a9afb8" d="M115-3C79 11 28 4 28-45v-112H4v-33h27l15-45h31v45h36v33H77v99c-1 23 16 31 38 25v30" id="ap"/><g id="a"><use transform="matrix(0.0728395061728395,0,0,0.0728395061728395,0,0)" xlink:href="#an"/><use transform="matrix(0.0728395061728395,0,0,0.0728395061728395,18.86543209876543,0)" xlink:href="#ao"/><use transform="matrix(0.0728395061728395,0,0,0.0728395061728395,33.43333333333333,0)" xlink:href="#ap"/><use transform="matrix(0.0728395061728395,0,0,0.0728395061728395,42.10123456790124,0)" xlink:href="#ao"/></g><path fill="#a9afb8" d="M230 0l2-204L168 0h-37L68-204 70 0H24v-248h70l56 185 57-185h69V0h-46" id="aq"/><path fill="#a9afb8" d="M110-194c64 0 96 36 96 99 0 64-35 99-97 99-61 0-95-36-95-99 0-62 34-99 96-99zm-1 164c35 0 45-28 45-65 0-40-10-65-43-65-34 0-45 26-45 65 0 36 10 65 43 65" id="ar"/><path fill="#a9afb8" d="M88-194c31-1 46 15 58 34l-1-101h50l1 261h-48c-2-10 0-23-3-31C134-8 116 4 84 4 32 4 16-41 15-95c0-56 19-97 73-99zm17 164c33 0 40-30 41-66 1-37-9-64-41-64s-38 30-39 65c0 43 13 65 39 65" id="as"/><path fill="#a9afb8" d="M185-48c-13 30-37 53-82 52C43 2 14-33 14-96s30-98 90-98c62 0 83 45 84 108H66c0 31 8 55 39 56 18 0 30-7 34-22zm-45-69c5-46-57-63-70-21-2 6-4 13-4 21h74" id="at"/><path fill="#a9afb8" d="M25 0v-261h50V0H25" id="au"/><g id="b"><use transform="matrix(0.0728395061728395,0,0,0.0728395061728395,0,0)" xlink:href="#aq"/><use transform="matrix(0.0728395061728395,0,0,0.0728395061728395,21.77901234567901,0)" xlink:href="#ar"/><use transform="matrix(0.0728395061728395,0,0,0.0728395061728395,37.73086419753086,0)" xlink:href="#as"/><use transform="matrix(0.0728395061728395,0,0,0.0728395061728395,53.68271604938271,0)" xlink:href="#at"/><use transform="matrix(0.0728395061728395,0,0,0.0728395061728395,68.25061728395062,0)" xlink:href="#au"/></g><path fill="#a9afb8" d="M14-72v-43h91v43H14" id="av"/><use transform="matrix(0.0728395061728395,0,0,0.0728395061728395,0,0)" xlink:href="#av" id="c"/><path fill="#a9afb8" d="M199 0l-22-63H83L61 0H9l90-248h61L250 0h-51zm-33-102l-36-108c-10 38-24 72-36 108h72" id="aw"/><path fill="#a9afb8" d="M169-182c-1-43-94-46-97-3 18 66 151 10 154 114 3 95-165 93-204 36-6-8-10-19-12-30l50-8c3 46 112 56 116 5-17-69-150-10-154-114-4-87 153-88 188-35 5 8 8 18 10 28" id="ax"/><g id="d"><use transform="matrix(0.0728395061728395,0,0,0.0728395061728395,0,0)" xlink:href="#an"/><use transform="matrix(0.0728395061728395,0,0,0.0728395061728395,18.86543209876543,0)" xlink:href="#aw"/><use transform="matrix(0.0728395061728395,0,0,0.0728395061728395,37.73086419753086,0)" xlink:href="#ax"/><use transform="matrix(0.0728395061728395,0,0,0.0728395061728395,55.212345679012344,0)" xlink:href="#ax"/></g><path fill="#a9afb8" d="M76-208v77h127v40H76V0H24v-248h183v40H76" id="ay"/><path fill="#a9afb8" d="M25-224v-37h50v37H25zM25 0v-190h50V0H25" id="az"/><path fill="#a9afb8" d="M135-194c87-1 58 113 63 194h-50c-7-57 23-157-34-157-59 0-34 97-39 157H25l-1-190h47c2 12-1 28 3 38 12-26 28-41 61-42" id="aA"/><g id="e"><use transform="matrix(0.0728395061728395,0,0,0.0728395061728395,0,0)" xlink:href="#ay"/><use transform="matrix(0.0728395061728395,0,0,0.0728395061728395,15.95185185185185,0)" xlink:href="#az"/><use transform="matrix(0.0728395061728395,0,0,0.0728395061728395,23.235802469135802,0)" xlink:href="#aA"/><use transform="matrix(0.0728395061728395,0,0,0.0728395061728395,39.187654320987654,0)" xlink:href="#ao"/><use transform="matrix(0.0728395061728395,0,0,0.0728395061728395,53.75555555555555,0)" xlink:href="#au"/></g><path fill="#a9afb8" d="M24-248c93 1 206-16 204 79-1 75-69 88-152 82V0H24v-248zm52 121c47 0 100 7 100-41 0-47-54-39-100-39v80" id="aB"/><path fill="#a9afb8" d="M135-150c-39-12-60 13-60 57V0H25l-1-190h47c2 13-1 29 3 40 6-28 27-53 61-41v41" id="aC"/><path fill="#a9afb8" d="M25-224v-37h50v37H25zM75 22c2 45-34 59-81 51V38c22 5 31-5 31-27v-201h50V22" id="aD"/><path fill="#a9afb8" d="M190-63c-7 42-38 67-86 67-59 0-84-38-90-98-12-110 154-137 174-36l-49 2c-2-19-15-32-35-32-30 0-35 28-38 64-6 74 65 87 74 30" id="aE"/><g id="f"><use transform="matrix(0.0728395061728395,0,0,0.0728395061728395,0,0)" xlink:href="#aB"/><use transform="matrix(0.0728395061728395,0,0,0.0728395061728395,17.48148148148148,0)" xlink:href="#aC"/><use transform="matrix(0.0728395061728395,0,0,0.0728395061728395,27.679012345679013,0)" xlink:href="#ar"/><use transform="matrix(0.0728395061728395,0,0,0.0728395061728395,43.63086419753086,0)" xlink:href="#aD"/><use transform="matrix(0.0728395061728395,0,0,0.0728395061728395,50.91481481481481,0)" xlink:href="#at"/><use transform="matrix(0.0728395061728395,0,0,0.0728395061728395,65.48271604938272,0)" xlink:href="#aE"/><use transform="matrix(0.0728395061728395,0,0,0.0728395061728395,80.05061728395061,0)" xlink:href="#ap"/></g><path fill="#a9afb8" d="M153-248C145-148 188 4 80 4 36 3 13-21 6-62l32-5c4 25 16 42 43 43 27 0 39-20 39-49v-147H72v-28h81" id="aF"/><path fill="#a9afb8" d="M141-36C126-15 110 5 73 4 37 3 15-17 15-53c-1-64 63-63 125-63 3-35-9-54-41-54-24 1-41 7-42 31l-33-3c5-37 33-52 76-52 45 0 72 20 72 64v82c-1 20 7 32 28 27v20c-31 9-61-2-59-35zM48-53c0 20 12 33 32 33 41-3 63-29 60-74-43 2-92-5-92 41" id="aG"/><path fill="#a9afb8" d="M210-169c-67 3-38 105-44 169h-31v-121c0-29-5-50-35-48C34-165 62-65 56 0H25l-1-190h30c1 10-1 24 2 32 10-44 99-50 107 0 11-21 27-35 58-36 85-2 47 119 55 194h-31v-121c0-29-5-49-35-48" id="aH"/><path fill="#a9afb8" d="M24-231v-30h32v30H24zM24 0v-190h32V0H24" id="aI"/><path fill="#a9afb8" d="M100-194c63 0 86 42 84 106H49c0 40 14 67 53 68 26 1 43-12 49-29l28 8c-11 28-37 45-77 45C44 4 14-33 15-96c1-61 26-98 85-98zm52 81c6-60-76-77-97-28-3 7-6 17-6 28h103" id="aJ"/><g id="g"><use transform="matrix(0.04248971193415638,0,0,0.04248971193415638,0,0)" xlink:href="#aF"/><use transform="matrix(0.04248971193415638,0,0,0.04248971193415638,7.648148148148148,0)" xlink:href="#aG"/><use transform="matrix(0.04248971193415638,0,0,0.04248971193415638,16.14609053497942,0)" xlink:href="#aH"/><use transform="matrix(0.04248971193415638,0,0,0.04248971193415638,28.85051440329218,0)" xlink:href="#aI"/><use transform="matrix(0.04248971193415638,0,0,0.04248971193415638,32.20720164609053,0)" xlink:href="#aJ"/></g><path fill="#a9afb8" d="M240 0l2-218c-23 76-54 145-80 218h-23L58-218 59 0H30v-248h44l77 211c21-75 51-140 76-211h43V0h-30" id="aK"/><path fill="#a9afb8" d="M100-194c62-1 85 37 85 99 1 63-27 99-86 99S16-35 15-95c0-66 28-99 85-99zM99-20c44 1 53-31 53-75 0-43-8-75-51-75s-53 32-53 75 10 74 51 75" id="aL"/><path fill="#a9afb8" d="M114-163C36-179 61-72 57 0H25l-1-190h30c1 12-1 29 2 39 6-27 23-49 58-41v29" id="aM"/><path fill="#a9afb8" d="M59-47c-2 24 18 29 38 22v24C64 9 27 4 27-40v-127H5v-23h24l9-43h21v43h35v23H59v120" id="aN"/><path fill="#a9afb8" d="M117-194c89-4 53 116 60 194h-32v-121c0-31-8-49-39-48C34-167 62-67 57 0H25l-1-190h30c1 10-1 24 2 32 11-22 29-35 61-36" id="aO"/><path fill="#a9afb8" d="M135-143c-3-34-86-38-87 0 15 53 115 12 119 90S17 21 10-45l28-5c4 36 97 45 98 0-10-56-113-15-118-90-4-57 82-63 122-42 12 7 21 19 24 35" id="aP"/><path fill="#a9afb8" d="M68-38c1 34 0 65-14 84H32c9-13 17-26 17-46H33v-38h35" id="aQ"/><g id="h"><use transform="matrix(0.04248971193415638,0,0,0.04248971193415638,0,0)" xlink:href="#aK"/><use transform="matrix(0.04248971193415638,0,0,0.04248971193415638,12.704423868312757,0)" xlink:href="#aL"/><use transform="matrix(0.04248971193415638,0,0,0.04248971193415638,21.20236625514403,0)" xlink:href="#aM"/><use transform="matrix(0.04248971193415638,0,0,0.04248971193415638,26.25864197530864,0)" xlink:href="#aN"/><use transform="matrix(0.04248971193415638,0,0,0.04248971193415638,30.50761316872428,0)" xlink:href="#aJ"/><use transform="matrix(0.04248971193415638,0,0,0.04248971193415638,39.00555555555555,0)" xlink:href="#aO"/><use transform="matrix(0.04248971193415638,0,0,0.04248971193415638,47.50349794238683,0)" xlink:href="#aP"/><use transform="matrix(0.04248971193415638,0,0,0.04248971193415638,55.151646090534975,0)" xlink:href="#aL"/><use transform="matrix(0.04248971193415638,0,0,0.04248971193415638,63.64958847736625,0)" xlink:href="#aO"/><use transform="matrix(0.04248971193415638,0,0,0.04248971193415638,72.14753086419752,0)" xlink:href="#aQ"/></g><path fill="#a9afb8" d="M127-220V0H93v-220H8v-28h204v28h-85" id="aR"/><path fill="#a9afb8" d="M206 0h-36l-40-164L89 0H53L-1-190h32L70-26l43-164h34l41 164 42-164h31" id="aS"/><path fill="#a9afb8" d="M24 0v-261h32V0H24" id="aT"/><g id="i"><use transform="matrix(0.04248971193415638,0,0,0.04248971193415638,0,0)" xlink:href="#aR"/><use transform="matrix(0.04248971193415638,0,0,0.04248971193415638,8.455452674897119,0)" xlink:href="#aS"/><use transform="matrix(0.04248971193415638,0,0,0.04248971193415638,19.46028806584362,0)" xlink:href="#aI"/><use transform="matrix(0.04248971193415638,0,0,0.04248971193415638,22.816975308641975,0)" xlink:href="#aT"/><use transform="matrix(0.04248971193415638,0,0,0.04248971193415638,26.173662551440326,0)" xlink:href="#aT"/><use transform="matrix(0.04248971193415638,0,0,0.04248971193415638,29.53034979423869,0)" xlink:href="#aG"/></g><path fill="#a9afb8" d="M143 4C61 4 22-44 18-125c-5-107 100-154 193-111 17 8 29 25 37 43l-32 9c-13-25-37-40-76-40-61 0-88 39-88 99 0 61 29 100 91 101 35 0 62-11 79-27v-45h-74v-28h105v86C228-13 192 4 143 4" id="aU"/><path fill="#a9afb8" d="M177-190C167-65 218 103 67 71c-23-6-38-20-44-43l32-5c15 47 100 32 89-28v-30C133-14 115 1 83 1 29 1 15-40 15-95c0-56 16-97 71-98 29-1 48 16 59 35 1-10 0-23 2-32h30zM94-22c36 0 50-32 50-73 0-42-14-75-50-75-39 0-46 34-46 75s6 73 46 73" id="aV"/><g id="j"><use transform="matrix(0.04248971193415638,0,0,0.04248971193415638,0,0)" xlink:href="#aU"/><use transform="matrix(0.04248971193415638,0,0,0.04248971193415638,11.897119341563785,0)" xlink:href="#aJ"/><use transform="matrix(0.04248971193415638,0,0,0.04248971193415638,20.39506172839506,0)" xlink:href="#aM"/><use transform="matrix(0.04248971193415638,0,0,0.04248971193415638,25.45133744855967,0)" xlink:href="#aT"/><use transform="matrix(0.04248971193415638,0,0,0.04248971193415638,28.808024691358025,0)" xlink:href="#aI"/><use transform="matrix(0.04248971193415638,0,0,0.04248971193415638,32.16471193415638,0)" xlink:href="#aO"/><use transform="matrix(0.04248971193415638,0,0,0.04248971193415638,40.662654320987656,0)" xlink:href="#aV"/></g><path fill="#a9afb8" d="M126-127c33 6 58 20 58 59 0 88-139 92-164 29-3-8-5-16-6-25l32-3c6 27 21 44 54 44 32 0 52-15 52-46 0-38-36-46-79-43v-28c39 1 72-4 72-42 0-27-17-43-46-43-28 0-47 15-49 41l-32-3c6-42 35-63 81-64 48-1 79 21 79 65 0 36-21 52-52 59" id="aW"/><path fill="#a9afb8" d="M0 4l72-265h28L28 4H0" id="aX"/><path fill="#a9afb8" d="M155-56V0h-30v-56H8v-25l114-167h33v167h35v25h-35zm-30-156c-27 46-58 90-88 131h88v-131" id="aY"/><path fill="#a9afb8" d="M101-251c82-7 93 87 43 132L82-64C71-53 59-42 53-27h129V0H18c2-99 128-94 128-182 0-28-16-43-45-43s-46 15-49 41l-32-3c6-41 34-60 81-64" id="aZ"/><path fill="#a9afb8" d="M101-251c68 0 85 55 85 127S166 4 100 4C33 4 14-52 14-124c0-73 17-127 87-127zm-1 229c47 0 54-49 54-102s-4-102-53-102c-51 0-55 48-55 102 0 53 5 102 54 102" id="ba"/><g id="k"><use transform="matrix(0.04248971193415638,0,0,0.04248971193415638,0,0)" xlink:href="#aW"/><use transform="matrix(0.04248971193415638,0,0,0.04248971193415638,8.497942386831275,0)" xlink:href="#aX"/><use transform="matrix(0.04248971193415638,0,0,0.04248971193415638,12.746913580246911,0)" xlink:href="#aY"/><use transform="matrix(0.04248971193415638,0,0,0.04248971193415638,21.244855967078188,0)" xlink:href="#aX"/><use transform="matrix(0.04248971193415638,0,0,0.04248971193415638,25.493827160493826,0)" xlink:href="#aZ"/><use transform="matrix(0.04248971193415638,0,0,0.04248971193415638,33.9917695473251,0)" xlink:href="#ba"/><use transform="matrix(0.04248971193415638,0,0,0.04248971193415638,42.489711934156375,0)" xlink:href="#aZ"/><use transform="matrix(0.04248971193415638,0,0,0.04248971193415638,50.98765432098765,0)" xlink:href="#aZ"/></g><path fill="#333" d="M133-28C103 26-5 8 13-77c13-62 24-115 90-117 29-1 46 15 56 35l19-102h32L160 0h-30zM45-64c-2 27 10 43 35 43 54-1 69-50 69-103 0-29-15-46-42-46-53-1-58 58-62 106" id="bb"/><path fill="#333" d="M165-48c-4 18 1 34 23 27l-3 20c-29 8-62 0-52-35h-2C116-14 99 4 63 4 30 4 8-16 8-49c0-68 71-67 138-67 10-26 0-56-31-54-26 1-42 9-47 31l-32-5c8-67 160-71 144 15-5 28-9 54-15 81zM42-50c3 52 80 24 89-6 7-12 7-24 11-38-47 1-103-4-100 44" id="bc"/><path fill="#333" d="M55-144c13 50 104 24 104 88C159 21 15 23 1-39l26-10c6 40 102 42 102-4-13-50-104-23-104-87 0-71 143-71 148-8l-29 4c-5-35-85-37-89 0" id="bd"/><path fill="#333" d="M-28 44V31h207v13H-28" id="be"/><path fill="#333" d="M50-231l6-30h32l-6 30H50zM6 0l37-190h31L37 0H6" id="bf"/><path fill="#333" d="M67-158c22-48 132-52 116 29L158 0h-32l25-140c3-38-53-32-70-12C52-117 51-52 38 0H6l36-190h30" id="bg"/><path fill="#333" d="M76-167L44 0H12l33-167H18l4-23h27c3-47 25-81 82-69l-4 24c-35-8-44 15-46 45h37l-5 23H76" id="bh"/><path fill="#333" d="M30-147c31-64 166-65 159 27C183-49 158 1 86 4 9 8 1-88 30-147zM88-20c53 0 68-48 68-100 0-31-11-51-44-50-52 1-68 46-68 97 0 32 13 53 44 53" id="bi"/><g id="l"><use transform="matrix(0.05,0,0,0.05,0,0)" xlink:href="#bb"/><use transform="matrix(0.05,0,0,0.05,10,0)" xlink:href="#bc"/><use transform="matrix(0.05,0,0,0.05,20,0)" xlink:href="#bd"/><use transform="matrix(0.05,0,0,0.05,29,0)" xlink:href="#bd"/><use transform="matrix(0.05,0,0,0.05,38,0)" xlink:href="#be"/><use transform="matrix(0.05,0,0,0.05,48,0)" xlink:href="#bf"/><use transform="matrix(0.05,0,0,0.05,51.95,0)" xlink:href="#bg"/><use transform="matrix(0.05,0,0,0.05,61.95,0)" xlink:href="#bh"/><use transform="matrix(0.05,0,0,0.05,66.95,0)" xlink:href="#bi"/></g><g id="m"><use transform="matrix(0.05,0,0,0.05,0,0)" xlink:href="#bb"/><use transform="matrix(0.05,0,0,0.05,10,0)" xlink:href="#bc"/><use transform="matrix(0.05,0,0,0.05,20,0)" xlink:href="#bd"/><use transform="matrix(0.05,0,0,0.05,29,0)" xlink:href="#bd"/><use transform="matrix(0.05,0,0,0.05,38,0)" xlink:href="#be"/><use transform="matrix(0.05,0,0,0.05,48,0)" xlink:href="#bf"/><use transform="matrix(0.05,0,0,0.05,51.95,0)" xlink:href="#bb"/></g><path d="M238-179c0 84-86 86-175 82L45 0H11l48-248c82 0 179-12 179 69zm-34 1c0-53-64-42-116-43l-19 98c63 0 135 9 135-55" id="bj"/><path d="M180 0L97-118 63-96 45 0H11l48-248h34L69-126c44-43 94-81 141-122h43L121-137 219 0h-39" id="bk"/><g id="n"><use transform="matrix(0.05,0,0,0.05,0,0)" xlink:href="#bj"/><use transform="matrix(0.05,0,0,0.05,12,0)" xlink:href="#bk"/></g><path d="M18-82l6-28h88l-6 28H18" id="bl"/><use transform="matrix(0.05,0,0,0.05,0,0)" xlink:href="#bl" id="o"/><path d="M50-231l6-30h32l-6 30H50zM6 0l37-190h31L37 0H6" id="bm"/><path d="M67-158c22-48 132-52 116 29L158 0h-32l25-140c3-38-53-32-70-12C52-117 51-52 38 0H6l36-190h30" id="bn"/><path d="M51-54c-9 22 5 41 31 30L79-1C43 14 10-4 19-52l22-115H19l5-23h22l19-43h21l-9 43h35l-4 23H73" id="bo"/><path d="M111-194c62-3 86 47 72 106H45c-7 38 6 69 45 68 27-1 43-14 53-32l24 11C152-15 129 4 87 4 38 3 12-23 12-71c0-70 32-119 99-123zm44 81c14-66-71-72-95-28-4 8-8 17-11 28h106" id="bp"/><path d="M103-194c29 0 47 14 56 36 2-11 5-23 8-32h30L160-5C157 61 82 97 21 62 9 55 4 45 1 30l28-7c7 42 83 31 92-3 4-16 9-38 13-55-13 20-29 36-62 36-40 0-60-25-60-64 0-71 23-131 91-131zm4 24c-53 0-58 54-61 104-2 27 10 44 36 44 49 0 65-50 67-102 1-29-15-46-42-46" id="bq"/><path d="M66-151c12-25 30-51 66-40l-6 26C45-176 58-65 38 0H6l36-190h30" id="br"/><g id="p"><use transform="matrix(0.05,0,0,0.05,0,0)" xlink:href="#bm"/><use transform="matrix(0.05,0,0,0.05,3.95,0)" xlink:href="#bn"/><use transform="matrix(0.05,0,0,0.05,13.949999999999998,0)" xlink:href="#bo"/><use transform="matrix(0.05,0,0,0.05,18.95,0)" xlink:href="#bp"/><use transform="matrix(0.05,0,0,0.05,28.950000000000003,0)" xlink:href="#bq"/><use transform="matrix(0.05,0,0,0.05,38.95,0)" xlink:href="#bp"/><use transform="matrix(0.05,0,0,0.05,48.95,0)" xlink:href="#br"/></g><path fill="#333" d="M111-194c62-3 86 47 72 106H45c-7 38 6 69 45 68 27-1 43-14 53-32l24 11C152-15 129 4 87 4 38 3 12-23 12-71c0-70 32-119 99-123zm44 81c14-66-71-72-95-28-4 8-8 17-11 28h106" id="bs"/><path fill="#333" d="M67-162c32-53 139-36 121 50C175-51 163 2 97 4 68 4 52-11 42-31 38 6 28 39 22 75H-9l50-265h29c-1 10 0 20-3 28zm89 36c0-26-10-43-35-43-54 0-67 50-69 103-1 29 14 45 42 46 53 0 62-58 62-106" id="bt"/><path fill="#333" d="M44-68c0 29 11 47 38 47 30 0 42-19 51-41l28 9C148-21 126 4 82 4 31 4 10-29 12-85c3-77 74-140 146-93 12 8 15 23 18 40l-31 5c-1-22-13-36-36-36-52 0-65 49-65 101" id="bu"/><path fill="#333" d="M66-151c12-25 30-51 66-40l-6 26C45-176 58-65 38 0H6l36-190h30" id="bv"/><g id="q"><use transform="matrix(0.05,0,0,0.05,0,0)" xlink:href="#bb"/><use transform="matrix(0.05,0,0,0.05,10,0)" xlink:href="#bs"/><use transform="matrix(0.05,0,0,0.05,20,0)" xlink:href="#bt"/><use transform="matrix(0.05,0,0,0.05,30,0)" xlink:href="#be"/><use transform="matrix(0.05,0,0,0.05,40,0)" xlink:href="#bd"/><use transform="matrix(0.05,0,0,0.05,49,0)" xlink:href="#bu"/><use transform="matrix(0.05,0,0,0.05,58,0)" xlink:href="#bi"/><use transform="matrix(0.05,0,0,0.05,68,0)" xlink:href="#bv"/><use transform="matrix(0.05,0,0,0.05,73.95,0)" xlink:href="#bs"/></g><path fill="#333" d="M51-54c-9 22 5 41 31 30L79-1C43 14 10-4 19-52l22-115H19l5-23h22l19-43h21l-9 43h35l-4 23H73" id="bw"/><path fill="#333" d="M103-194c29 0 47 14 56 36 2-11 5-23 8-32h30L160-5C157 61 82 97 21 62 9 55 4 45 1 30l28-7c7 42 83 31 92-3 4-16 9-38 13-55-13 20-29 36-62 36-40 0-60-25-60-64 0-71 23-131 91-131zm4 24c-53 0-58 54-61 104-2 27 10 44 36 44 49 0 65-50 67-102 1-29-15-46-42-46" id="bx"/><g id="r"><use transform="matrix(0.05,0,0,0.05,0,0)" xlink:href="#bf"/><use transform="matrix(0.05,0,0,0.05,3.95,0)" xlink:href="#bg"/><use transform="matrix(0.05,0,0,0.05,13.949999999999998,0)" xlink:href="#bw"/><use transform="matrix(0.05,0,0,0.05,18.95,0)" xlink:href="#bs"/><use transform="matrix(0.05,0,0,0.05,28.950000000000003,0)" xlink:href="#bx"/><use transform="matrix(0.05,0,0,0.05,38.95,0)" xlink:href="#bs"/><use transform="matrix(0.05,0,0,0.05,48.95,0)" xlink:href="#bv"/></g><path fill="#333" d="M6 0l50-261h32L37 0H6" id="by"/><path fill="#333" d="M89 0H52L20-190h33L74-25l89-165h34" id="bz"/><g id="s"><use transform="matrix(0.05,0,0,0.05,0,0)" xlink:href="#bb"/><use transform="matrix(0.05,0,0,0.05,10,0)" xlink:href="#bs"/><use transform="matrix(0.05,0,0,0.05,20,0)" xlink:href="#bt"/><use transform="matrix(0.05,0,0,0.05,30,0)" xlink:href="#be"/><use transform="matrix(0.05,0,0,0.05,40,0)" xlink:href="#by"/><use transform="matrix(0.05,0,0,0.05,43.95,0)" xlink:href="#bs"/><use transform="matrix(0.05,0,0,0.05,53.95,0)" xlink:href="#bz"/><use transform="matrix(0.05,0,0,0.05,62.95,0)" xlink:href="#bs"/><use transform="matrix(0.05,0,0,0.05,72.95,0)" xlink:href="#by"/></g><path fill="#333" d="M124 0L87-78 21 0h-35l86-98-46-92h33l34 74 61-74h37l-83 92 50 98h-34" id="bA"/><path fill="#333" d="M198-190L69 30C53 58 25 83-20 72c4-11-1-27 19-22 33-1 43-29 59-52L20-190h32L79-34l84-156h35" id="bB"/><g id="t"><use transform="matrix(0.05,0,0,0.05,0,0)" xlink:href="#bc"/><use transform="matrix(0.05,0,0,0.05,10,0)" xlink:href="#bg"/><use transform="matrix(0.05,0,0,0.05,20,0)" xlink:href="#bA"/><use transform="matrix(0.05,0,0,0.05,29,0)" xlink:href="#bf"/><use transform="matrix(0.05,0,0,0.05,32.95,0)" xlink:href="#bs"/><use transform="matrix(0.05,0,0,0.05,42.95,0)" xlink:href="#bw"/><use transform="matrix(0.05,0,0,0.05,47.95,0)" xlink:href="#bB"/><use transform="matrix(0.05,0,0,0.05,56.95,0)" xlink:href="#be"/><use transform="matrix(0.05,0,0,0.05,66.95,0)" xlink:href="#bd"/><use transform="matrix(0.05,0,0,0.05,75.95,0)" xlink:href="#bu"/><use transform="matrix(0.05,0,0,0.05,84.95,0)" xlink:href="#bi"/><use transform="matrix(0.05,0,0,0.05,94.95,0)" xlink:href="#bv"/><use transform="matrix(0.05,0,0,0.05,100.9,0)" xlink:href="#bs"/></g><g id="u"><use transform="matrix(0.05,0,0,0.05,0,0)" xlink:href="#bc"/><use transform="matrix(0.05,0,0,0.05,10,0)" xlink:href="#bg"/><use transform="matrix(0.05,0,0,0.05,20,0)" xlink:href="#bA"/><use transform="matrix(0.05,0,0,0.05,29,0)" xlink:href="#bf"/><use transform="matrix(0.05,0,0,0.05,32.95,0)" xlink:href="#bs"/><use transform="matrix(0.05,0,0,0.05,42.95,0)" xlink:href="#bw"/><use transform="matrix(0.05,0,0,0.05,47.95,0)" xlink:href="#bB"/><use transform="matrix(0.05,0,0,0.05,56.95,0)" xlink:href="#be"/><use transform="matrix(0.05,0,0,0.05,66.95,0)" xlink:href="#by"/><use transform="matrix(0.05,0,0,0.05,70.9,0)" xlink:href="#bs"/><use transform="matrix(0.05,0,0,0.05,80.9,0)" xlink:href="#bz"/><use transform="matrix(0.05,0,0,0.05,89.9,0)" xlink:href="#bs"/><use transform="matrix(0.05,0,0,0.05,99.9,0)" xlink:href="#by"/></g><g id="v"><use transform="matrix(0.05,0,0,0.05,0,0)" xlink:href="#bd"/><use transform="matrix(0.05,0,0,0.05,9,0)" xlink:href="#bw"/><use transform="matrix(0.05,0,0,0.05,14,0)" xlink:href="#bv"/><use transform="matrix(0.05,0,0,0.05,19.95,0)" xlink:href="#bs"/><use transform="matrix(0.05,0,0,0.05,29.950000000000003,0)" xlink:href="#bd"/><use transform="matrix(0.05,0,0,0.05,38.95,0)" xlink:href="#bd"/><use transform="matrix(0.05,0,0,0.05,47.95,0)" xlink:href="#be"/><use transform="matrix(0.05,0,0,0.05,57.95,0)" xlink:href="#bd"/><use transform="matrix(0.05,0,0,0.05,66.95,0)" xlink:href="#bu"/><use transform="matrix(0.05,0,0,0.05,75.95,0)" xlink:href="#bi"/><use transform="matrix(0.05,0,0,0.05,85.95,0)" xlink:href="#bv"/><use transform="matrix(0.05,0,0,0.05,91.9,0)" xlink:href="#bs"/></g><g id="w"><use transform="matrix(0.05,0,0,0.05,0,0)" xlink:href="#bd"/><use transform="matrix(0.05,0,0,0.05,9,0)" xlink:href="#bw"/><use transform="matrix(0.05,0,0,0.05,14,0)" xlink:href="#bv"/><use transform="matrix(0.05,0,0,0.05,19.95,0)" xlink:href="#bs"/><use transform="matrix(0.05,0,0,0.05,29.950000000000003,0)" xlink:href="#bd"/><use transform="matrix(0.05,0,0,0.05,38.95,0)" xlink:href="#bd"/><use transform="matrix(0.05,0,0,0.05,47.95,0)" xlink:href="#be"/><use transform="matrix(0.05,0,0,0.05,57.95,0)" xlink:href="#by"/><use transform="matrix(0.05,0,0,0.05,61.900000000000006,0)" xlink:href="#bs"/><use transform="matrix(0.05,0,0,0.05,71.9,0)" xlink:href="#bz"/><use transform="matrix(0.05,0,0,0.05,80.9,0)" xlink:href="#bs"/><use transform="matrix(0.05,0,0,0.05,90.9,0)" xlink:href="#by"/></g><g id="x"><use transform="matrix(0.05,0,0,0.05,0,0)" xlink:href="#bt"/><use transform="matrix(0.05,0,0,0.05,10,0)" xlink:href="#bs"/><use transform="matrix(0.05,0,0,0.05,20,0)" xlink:href="#bv"/><use transform="matrix(0.05,0,0,0.05,25.950000000000003,0)" xlink:href="#bd"/><use transform="matrix(0.05,0,0,0.05,34.95,0)" xlink:href="#bi"/><use transform="matrix(0.05,0,0,0.05,44.95,0)" xlink:href="#bg"/><use transform="matrix(0.05,0,0,0.05,54.95,0)" xlink:href="#be"/><use transform="matrix(0.05,0,0,0.05,64.95,0)" xlink:href="#bf"/><use transform="matrix(0.05,0,0,0.05,68.9,0)" xlink:href="#bb"/></g><path fill="#333" d="M87-220l-18 92h140l-5 28H64L45 0H11l48-248h178l-5 28H87" id="bC"/><path fill="#333" d="M180 0L97-118 63-96 45 0H11l48-248h34L69-126c44-43 94-81 141-122h43L121-137 219 0h-39" id="bD"/><g id="y"><use transform="matrix(0.05,0,0,0.05,0,0)" xlink:href="#bC"/><use transform="matrix(0.05,0,0,0.05,10.950000000000001,0)" xlink:href="#bD"/></g><path fill="#333" d="M18-82l6-28h88l-6 28H18" id="bE"/><use transform="matrix(0.05,0,0,0.05,0,0)" xlink:href="#bE" id="z"/><g id="A"><use transform="matrix(0.05,0,0,0.05,0,0)" xlink:href="#bf"/><use transform="matrix(0.05,0,0,0.05,3.95,0)" xlink:href="#bg"/><use transform="matrix(0.05,0,0,0.05,13.949999999999998,0)" xlink:href="#bw"/><use transform="matrix(0.05,0,0,0.05,18.95,0)" xlink:href="#bs"/><use transform="matrix(0.05,0,0,0.05,28.950000000000003,0)" xlink:href="#bx"/><use transform="matrix(0.05,0,0,0.05,38.95,0)" xlink:href="#bs"/><use transform="matrix(0.05,0,0,0.05,48.95,0)" xlink:href="#bv"/></g><g id="B"><use transform="matrix(0.05,0,0,0.05,0,0)" xlink:href="#bt"/><use transform="matrix(0.05,0,0,0.05,10,0)" xlink:href="#bs"/><use transform="matrix(0.05,0,0,0.05,20,0)" xlink:href="#bv"/><use transform="matrix(0.05,0,0,0.05,25.950000000000003,0)" xlink:href="#bd"/><use transform="matrix(0.05,0,0,0.05,34.95,0)" xlink:href="#bi"/><use transform="matrix(0.05,0,0,0.05,44.95,0)" xlink:href="#bg"/><use transform="matrix(0.05,0,0,0.05,54.95,0)" xlink:href="#be"/><use transform="matrix(0.05,0,0,0.05,64.95,0)" xlink:href="#bf"/><use transform="matrix(0.05,0,0,0.05,68.9,0)" xlink:href="#bg"/><use transform="matrix(0.05,0,0,0.05,78.9,0)" xlink:href="#bh"/><use transform="matrix(0.05,0,0,0.05,83.9,0)" xlink:href="#bi"/></g><path fill="#333" d="M238-179c0 84-86 86-175 82L45 0H11l48-248c82 0 179-12 179 69zm-34 1c0-53-64-42-116-43l-19 98c63 0 135 9 135-55" id="bF"/><g id="C"><use transform="matrix(0.05,0,0,0.05,0,0)" xlink:href="#bF"/><use transform="matrix(0.05,0,0,0.05,12,0)" xlink:href="#bD"/></g><path d="M133-28C103 26-5 8 13-77c13-62 24-115 90-117 29-1 46 15 56 35l19-102h32L160 0h-30zM45-64c-2 27 10 43 35 43 54-1 69-50 69-103 0-29-15-46-42-46-53-1-58 58-62 106" id="bG"/><g id="D"><use transform="matrix(0.05,0,0,0.05,0,0)" xlink:href="#bq"/><use transform="matrix(0.05,0,0,0.05,10,0)" xlink:href="#bp"/><use transform="matrix(0.05,0,0,0.05,20,0)" xlink:href="#bn"/><use transform="matrix(0.05,0,0,0.05,30,0)" xlink:href="#bG"/><use transform="matrix(0.05,0,0,0.05,40,0)" xlink:href="#bp"/><use transform="matrix(0.05,0,0,0.05,50,0)" xlink:href="#br"/></g><g id="E"><use transform="matrix(0.05,0,0,0.05,0,0)" xlink:href="#bm"/><use transform="matrix(0.05,0,0,0.05,3.95,0)" xlink:href="#bn"/><use transform="matrix(0.05,0,0,0.05,13.949999999999998,0)" xlink:href="#bo"/><use transform="matrix(0.05,0,0,0.05,18.95,0)" xlink:href="#bp"/><use transform="matrix(0.05,0,0,0.05,28.950000000000003,0)" xlink:href="#bq"/><use transform="matrix(0.05,0,0,0.05,38.95,0)" xlink:href="#bp"/><use transform="matrix(0.05,0,0,0.05,48.95,0)" xlink:href="#br"/></g><path d="M165-48c-4 18 1 34 23 27l-3 20c-29 8-62 0-52-35h-2C116-14 99 4 63 4 30 4 8-16 8-49c0-68 71-67 138-67 10-26 0-56-31-54-26 1-42 9-47 31l-32-5c8-67 160-71 144 15-5 28-9 54-15 81zM42-50c3 52 80 24 89-6 7-12 7-24 11-38-47 1-103-4-100 44" id="bH"/><path d="M44-68c0 29 11 47 38 47 30 0 42-19 51-41l28 9C148-21 126 4 82 4 31 4 10-29 12-85c3-77 74-140 146-93 12 8 15 23 18 40l-31 5c-1-22-13-36-36-36-52 0-65 49-65 101" id="bI"/><g id="F"><use transform="matrix(0.05,0,0,0.05,0,0)" xlink:href="#br"/><use transform="matrix(0.05,0,0,0.05,5.95,0)" xlink:href="#bH"/><use transform="matrix(0.05,0,0,0.05,15.949999999999998,0)" xlink:href="#bI"/><use transform="matrix(0.05,0,0,0.05,24.95,0)" xlink:href="#bp"/></g><path d="M30-147c31-64 166-65 159 27C183-49 158 1 86 4 9 8 1-88 30-147zM88-20c53 0 68-48 68-100 0-31-11-51-44-50-52 1-68 46-68 97 0 32 13 53 44 53" id="bJ"/><g id="G"><use transform="matrix(0.05,0,0,0.05,0,0)" xlink:href="#bJ"/><use transform="matrix(0.05,0,0,0.05,10,0)" xlink:href="#br"/><use transform="matrix(0.05,0,0,0.05,15.949999999999998,0)" xlink:href="#bm"/><use transform="matrix(0.05,0,0,0.05,19.9,0)" xlink:href="#bp"/><use transform="matrix(0.05,0,0,0.05,29.899999999999995,0)" xlink:href="#bn"/><use transform="matrix(0.05,0,0,0.05,39.9,0)" xlink:href="#bo"/></g><path d="M248-111c6-24 9-61-24-58-72 9-57 108-77 169h-31l26-142c3-37-50-30-64-10C52-115 50-51 37 0H6l36-190h30c-1 10-6 24-4 32 13-43 101-52 105 5 13-22 29-41 61-41 90 0 28 129 23 194h-31" id="bK"/><g id="H"><use transform="matrix(0.05,0,0,0.05,0,0)" xlink:href="#bK"/><use transform="matrix(0.05,0,0,0.05,14.950000000000001,0)" xlink:href="#bH"/><use transform="matrix(0.05,0,0,0.05,24.950000000000003,0)" xlink:href="#br"/><use transform="matrix(0.05,0,0,0.05,30.900000000000002,0)" xlink:href="#br"/><use transform="matrix(0.05,0,0,0.05,36.85,0)" xlink:href="#bm"/><use transform="matrix(0.05,0,0,0.05,40.800000000000004,0)" xlink:href="#bp"/><use transform="matrix(0.05,0,0,0.05,50.800000000000004,0)" xlink:href="#bG"/></g><path d="M67-158c15-20 31-36 64-36 94 0 33 127 27 194h-32l25-140c3-38-53-32-70-12C52-117 51-51 37 0H6l51-261h31" id="bL"/><g id="I"><use transform="matrix(0.05,0,0,0.05,0,0)" xlink:href="#bL"/><use transform="matrix(0.05,0,0,0.05,10,0)" xlink:href="#bH"/><use transform="matrix(0.05,0,0,0.05,20,0)" xlink:href="#bn"/><use transform="matrix(0.05,0,0,0.05,30,0)" xlink:href="#bG"/></g><path d="M76-167L44 0H12l33-167H18l4-23h27c3-47 25-81 82-69l-4 24c-35-8-44 15-46 45h37l-5 23H76" id="bM"/><path d="M6 0l50-261h32L37 0H6" id="bN"/><path d="M198-190L69 30C53 58 25 83-20 72c4-11-1-27 19-22 33-1 43-29 59-52L20-190h32L79-34l84-156h35" id="bO"/><path d="M55-144c13 50 104 24 104 88C159 21 15 23 1-39l26-10c6 40 102 42 102-4-13-50-104-23-104-87 0-71 143-71 148-8l-29 4c-5-35-85-37-89 0" id="bP"/><path d="M-8 0l5-24 140-142H31l5-24h145l-5 24L36-24h119l-5 24H-8" id="bQ"/><g id="J"><use transform="matrix(0.05,0,0,0.05,0,0)" xlink:href="#bM"/><use transform="matrix(0.05,0,0,0.05,5,0)" xlink:href="#bH"/><use transform="matrix(0.05,0,0,0.05,15,0)" xlink:href="#bK"/><use transform="matrix(0.05,0,0,0.05,29.950000000000003,0)" xlink:href="#bm"/><use transform="matrix(0.05,0,0,0.05,33.900000000000006,0)" xlink:href="#bN"/><use transform="matrix(0.05,0,0,0.05,37.85000000000001,0)" xlink:href="#bO"/><use transform="matrix(0.05,0,0,0.05,46.85000000000001,0)" xlink:href="#bP"/><use transform="matrix(0.05,0,0,0.05,55.85,0)" xlink:href="#bm"/><use transform="matrix(0.05,0,0,0.05,59.80000000000001,0)" xlink:href="#bQ"/><use transform="matrix(0.05,0,0,0.05,68.80000000000001,0)" xlink:href="#bp"/></g><g id="K"><use transform="matrix(0.05,0,0,0.05,0,0)" xlink:href="#bp"/><use transform="matrix(0.05,0,0,0.05,10,0)" xlink:href="#bn"/><use transform="matrix(0.05,0,0,0.05,20,0)" xlink:href="#bq"/><use transform="matrix(0.05,0,0,0.05,30,0)" xlink:href="#bn"/><use transform="matrix(0.05,0,0,0.05,40,0)" xlink:href="#bH"/><use transform="matrix(0.05,0,0,0.05,50,0)" xlink:href="#bo"/></g><path d="M-28 44V31h207v13H-28" id="bR"/><path d="M67-162c32-53 139-36 121 50C175-51 163 2 97 4 68 4 52-11 42-31 38 6 28 39 22 75H-9l50-265h29c-1 10 0 20-3 28zm89 36c0-26-10-43-35-43-54 0-67 50-69 103-1 29 14 45 42 46 53 0 62-58 62-106" id="bS"/><g id="L"><use transform="matrix(0.05,0,0,0.05,0,0)" xlink:href="#bH"/><use transform="matrix(0.05,0,0,0.05,10,0)" xlink:href="#bq"/><use transform="matrix(0.05,0,0,0.05,20,0)" xlink:href="#bp"/><use transform="matrix(0.05,0,0,0.05,30,0)" xlink:href="#bR"/><use transform="matrix(0.05,0,0,0.05,40,0)" xlink:href="#bq"/><use transform="matrix(0.05,0,0,0.05,50,0)" xlink:href="#br"/><use transform="matrix(0.05,0,0,0.05,55.95,0)" xlink:href="#bS"/><use transform="matrix(0.05,0,0,0.05,65.95,0)" xlink:href="#bR"/><use transform="matrix(0.05,0,0,0.05,75.95,0)" xlink:href="#bm"/><use transform="matrix(0.05,0,0,0.05,79.9,0)" xlink:href="#bG"/></g><path d="M87-220l-18 92h140l-5 28H64L45 0H11l48-248h178l-5 28H87" id="bT"/><g id="M"><use transform="matrix(0.05,0,0,0.05,0,0)" xlink:href="#bT"/><use transform="matrix(0.05,0,0,0.05,10.950000000000001,0)" xlink:href="#bk"/></g><g id="N"><use transform="matrix(0.05,0,0,0.05,0,0)" xlink:href="#bc"/><use transform="matrix(0.05,0,0,0.05,10,0)" xlink:href="#bx"/><use transform="matrix(0.05,0,0,0.05,20,0)" xlink:href="#bs"/><use transform="matrix(0.05,0,0,0.05,30,0)" xlink:href="#be"/><use transform="matrix(0.05,0,0,0.05,40,0)" xlink:href="#bx"/><use transform="matrix(0.05,0,0,0.05,50,0)" xlink:href="#bv"/><use transform="matrix(0.05,0,0,0.05,55.95,0)" xlink:href="#bt"/></g><g id="O"><use transform="matrix(0.05,0,0,0.05,0,0)" xlink:href="#bc"/><use transform="matrix(0.05,0,0,0.05,10,0)" xlink:href="#bx"/><use transform="matrix(0.05,0,0,0.05,20,0)" xlink:href="#bs"/><use transform="matrix(0.05,0,0,0.05,30,0)" xlink:href="#be"/><use transform="matrix(0.05,0,0,0.05,40,0)" xlink:href="#bx"/><use transform="matrix(0.05,0,0,0.05,50,0)" xlink:href="#bv"/><use transform="matrix(0.05,0,0,0.05,55.95,0)" xlink:href="#bt"/><use transform="matrix(0.05,0,0,0.05,65.95,0)" xlink:href="#be"/><use transform="matrix(0.05,0,0,0.05,75.95,0)" xlink:href="#bf"/><use transform="matrix(0.05,0,0,0.05,79.9,0)" xlink:href="#bb"/></g><path fill="#333" d="M67 3c-93-2-31-127-26-193h32L48-50c-3 39 53 32 70 12 30-34 30-101 43-152h32L157 0h-30c1-10 6-24 4-33-14 20-29 37-64 36" id="bU"/><g id="P"><use transform="matrix(0.05,0,0,0.05,0,0)" xlink:href="#bc"/><use transform="matrix(0.05,0,0,0.05,10,0)" xlink:href="#bx"/><use transform="matrix(0.05,0,0,0.05,20,0)" xlink:href="#bs"/><use transform="matrix(0.05,0,0,0.05,30,0)" xlink:href="#be"/><use transform="matrix(0.05,0,0,0.05,40,0)" xlink:href="#bx"/><use transform="matrix(0.05,0,0,0.05,50,0)" xlink:href="#bv"/><use transform="matrix(0.05,0,0,0.05,55.95,0)" xlink:href="#bi"/><use transform="matrix(0.05,0,0,0.05,65.95,0)" xlink:href="#bU"/><use transform="matrix(0.05,0,0,0.05,75.95,0)" xlink:href="#bt"/></g><path fill="#333" d="M67-158c15-20 31-36 64-36 94 0 33 127 27 194h-32l25-140c3-38-53-32-70-12C52-117 51-51 37 0H6l51-261h31" id="bV"/><path fill="#333" d="M17-49c1-102 45-165 103-212h30C92-210 49-145 49-46 49 4 63 43 85 75H54C30 43 18 2 17-49" id="bW"/><path fill="#333" d="M148-71c0-36-31-44-71-41l5-28c46 3 81-6 81-50 0-23-15-35-39-35-30 0-49 17-56 41l-32-3c12-39 42-63 90-64 43 0 69 19 71 60 1 43-30 58-65 66 27 5 49 22 49 53 0 85-133 99-164 35-4-7-7-15-9-22l29-9c8 25 25 45 58 45 34 1 53-17 53-48" id="bX"/><path fill="#333" d="M16-82c0-90 25-169 113-169 48 0 68 33 68 82C197-79 170 4 84 4 37 4 16-31 16-82zm30 5c0 32 11 55 40 55 69 0 76-79 80-149 2-32-10-55-39-55-69 0-81 81-81 149" id="bY"/><path fill="#333" d="M98-137C97-35 54 29-4 75h-31C23 23 67-41 67-140c0-50-15-89-37-121h31c24 32 36 73 37 124" id="bZ"/><g id="Q"><use transform="matrix(0.05,0,0,0.05,0,0)" xlink:href="#bu"/><use transform="matrix(0.05,0,0,0.05,9,0)" xlink:href="#bV"/><use transform="matrix(0.05,0,0,0.05,19,0)" xlink:href="#bc"/><use transform="matrix(0.05,0,0,0.05,29,0)" xlink:href="#bv"/><use transform="matrix(0.05,0,0,0.05,34.95,0)" xlink:href="#bW"/><use transform="matrix(0.05,0,0,0.05,40.900000000000006,0)" xlink:href="#bX"/><use transform="matrix(0.05,0,0,0.05,50.900000000000006,0)" xlink:href="#bY"/><use transform="matrix(0.05,0,0,0.05,60.900000000000006,0)" xlink:href="#bZ"/></g><g id="R"><use transform="matrix(0.05,0,0,0.05,0,0)" xlink:href="#by"/><use transform="matrix(0.05,0,0,0.05,3.95,0)" xlink:href="#bi"/><use transform="matrix(0.05,0,0,0.05,13.949999999999998,0)" xlink:href="#bu"/><use transform="matrix(0.05,0,0,0.05,22.95,0)" xlink:href="#bc"/><use transform="matrix(0.05,0,0,0.05,32.95,0)" xlink:href="#bw"/><use transform="matrix(0.05,0,0,0.05,37.95,0)" xlink:href="#bf"/><use transform="matrix(0.05,0,0,0.05,41.900000000000006,0)" xlink:href="#bi"/><use transform="matrix(0.05,0,0,0.05,51.900000000000006,0)" xlink:href="#bg"/><use transform="matrix(0.05,0,0,0.05,61.900000000000006,0)" xlink:href="#be"/><use transform="matrix(0.05,0,0,0.05,71.9,0)" xlink:href="#bf"/><use transform="matrix(0.05,0,0,0.05,75.85000000000001,0)" xlink:href="#bg"/><use transform="matrix(0.05,0,0,0.05,85.85000000000001,0)" xlink:href="#bh"/><use transform="matrix(0.05,0,0,0.05,90.85000000000001,0)" xlink:href="#bi"/></g><g id="S"><use transform="matrix(0.05,0,0,0.05,0,0)" xlink:href="#by"/><use transform="matrix(0.05,0,0,0.05,3.95,0)" xlink:href="#bi"/><use transform="matrix(0.05,0,0,0.05,13.949999999999998,0)" xlink:href="#bu"/><use transform="matrix(0.05,0,0,0.05,22.95,0)" xlink:href="#be"/><use transform="matrix(0.05,0,0,0.05,32.95,0)" xlink:href="#bf"/><use transform="matrix(0.05,0,0,0.05,36.900000000000006,0)" xlink:href="#bb"/></g><path fill="#333" d="M68-162c25-46 127-43 121 31C183-60 169 1 98 4 69 5 53-11 43-31L36 0H5l52-261h31zm88 36c2-27-9-43-34-43-55 0-70 51-70 103 0 29 15 45 43 46 52 0 58-58 61-106" id="ca"/><g id="T"><use transform="matrix(0.05,0,0,0.05,0,0)" xlink:href="#bU"/><use transform="matrix(0.05,0,0,0.05,10,0)" xlink:href="#bv"/><use transform="matrix(0.05,0,0,0.05,15.949999999999998,0)" xlink:href="#ca"/><use transform="matrix(0.05,0,0,0.05,25.950000000000003,0)" xlink:href="#bc"/><use transform="matrix(0.05,0,0,0.05,35.95,0)" xlink:href="#bg"/></g><path d="M67 3c-93-2-31-127-26-193h32L48-50c-3 39 53 32 70 12 30-34 30-101 43-152h32L157 0h-30c1-10 6-24 4-33-14 20-29 37-64 36" id="cb"/><g id="U"><use transform="matrix(0.05,0,0,0.05,0,0)" xlink:href="#bI"/><use transform="matrix(0.05,0,0,0.05,9,0)" xlink:href="#bJ"/><use transform="matrix(0.05,0,0,0.05,19,0)" xlink:href="#cb"/><use transform="matrix(0.05,0,0,0.05,29,0)" xlink:href="#bn"/><use transform="matrix(0.05,0,0,0.05,39,0)" xlink:href="#bo"/><use transform="matrix(0.05,0,0,0.05,44,0)" xlink:href="#br"/><use transform="matrix(0.05,0,0,0.05,49.95,0)" xlink:href="#bO"/></g><path fill="#333" d="M123-251c66 0 92 69 53 113C138-94 73-75 39-27h128l-5 27H-2c17-92 123-93 159-163 14-28-1-64-36-62-29 2-46 17-54 41l-30-6c13-36 37-61 86-61" id="cc"/><g id="V"><use transform="matrix(0.05,0,0,0.05,0,0)" xlink:href="#bu"/><use transform="matrix(0.05,0,0,0.05,9,0)" xlink:href="#bV"/><use transform="matrix(0.05,0,0,0.05,19,0)" xlink:href="#bc"/><use transform="matrix(0.05,0,0,0.05,29,0)" xlink:href="#bv"/><use transform="matrix(0.05,0,0,0.05,34.95,0)" xlink:href="#bW"/><use transform="matrix(0.05,0,0,0.05,40.900000000000006,0)" xlink:href="#cc"/><use transform="matrix(0.05,0,0,0.05,50.900000000000006,0)" xlink:href="#bZ"/></g><g id="W"><use transform="matrix(0.05,0,0,0.05,0,0)" xlink:href="#bS"/><use transform="matrix(0.05,0,0,0.05,10,0)" xlink:href="#bp"/><use transform="matrix(0.05,0,0,0.05,20,0)" xlink:href="#br"/><use transform="matrix(0.05,0,0,0.05,25.950000000000003,0)" xlink:href="#bP"/><use transform="matrix(0.05,0,0,0.05,34.95,0)" xlink:href="#bJ"/><use transform="matrix(0.05,0,0,0.05,44.95,0)" xlink:href="#bn"/><use transform="matrix(0.05,0,0,0.05,54.95,0)" xlink:href="#bR"/><use transform="matrix(0.05,0,0,0.05,64.95,0)" xlink:href="#bm"/><use transform="matrix(0.05,0,0,0.05,68.9,0)" xlink:href="#bG"/></g><path fill="#333" d="M248-111c6-24 9-61-24-58-72 9-57 108-77 169h-31l26-142c3-37-50-30-64-10C52-115 50-51 37 0H6l36-190h30c-1 10-6 24-4 32 13-43 101-52 105 5 13-22 29-41 61-41 90 0 28 129 23 194h-31" id="cd"/><g id="X"><use transform="matrix(0.05,0,0,0.05,0,0)" xlink:href="#bw"/><use transform="matrix(0.05,0,0,0.05,5,0)" xlink:href="#bs"/><use transform="matrix(0.05,0,0,0.05,15,0)" xlink:href="#cd"/><use transform="matrix(0.05,0,0,0.05,29.950000000000003,0)" xlink:href="#bt"/><use transform="matrix(0.05,0,0,0.05,39.95,0)" xlink:href="#bs"/><use transform="matrix(0.05,0,0,0.05,49.95,0)" xlink:href="#bv"/><use transform="matrix(0.05,0,0,0.05,55.900000000000006,0)" xlink:href="#be"/><use transform="matrix(0.05,0,0,0.05,65.9,0)" xlink:href="#bf"/><use transform="matrix(0.05,0,0,0.05,69.85000000000001,0)" xlink:href="#bg"/><use transform="matrix(0.05,0,0,0.05,79.85000000000001,0)" xlink:href="#bh"/><use transform="matrix(0.05,0,0,0.05,84.85000000000001,0)" xlink:href="#bi"/></g><g id="Y"><use transform="matrix(0.05,0,0,0.05,0,0)" xlink:href="#bw"/><use transform="matrix(0.05,0,0,0.05,5,0)" xlink:href="#bs"/><use transform="matrix(0.05,0,0,0.05,15,0)" xlink:href="#cd"/><use transform="matrix(0.05,0,0,0.05,29.950000000000003,0)" xlink:href="#bt"/><use transform="matrix(0.05,0,0,0.05,39.95,0)" xlink:href="#bs"/><use transform="matrix(0.05,0,0,0.05,49.95,0)" xlink:href="#bv"/><use transform="matrix(0.05,0,0,0.05,55.900000000000006,0)" xlink:href="#be"/><use transform="matrix(0.05,0,0,0.05,65.9,0)" xlink:href="#bf"/><use transform="matrix(0.05,0,0,0.05,69.85000000000001,0)" xlink:href="#bb"/></g><path fill="#333" d="M9 0l6-27h63l36-188-63 39 6-31 66-41h29L110-27h60l-5 27H9" id="ce"/><g id="Z"><use transform="matrix(0.05,0,0,0.05,0,0)" xlink:href="#bw"/><use transform="matrix(0.05,0,0,0.05,5,0)" xlink:href="#bf"/><use transform="matrix(0.05,0,0,0.05,8.95,0)" xlink:href="#bt"/><use transform="matrix(0.05,0,0,0.05,18.95,0)" xlink:href="#bf"/><use transform="matrix(0.05,0,0,0.05,22.9,0)" xlink:href="#ce"/></g><g id="aa"><use transform="matrix(0.05,0,0,0.05,0,0)" xlink:href="#bw"/><use transform="matrix(0.05,0,0,0.05,5,0)" xlink:href="#bf"/><use transform="matrix(0.05,0,0,0.05,8.95,0)" xlink:href="#bt"/><use transform="matrix(0.05,0,0,0.05,18.95,0)" xlink:href="#bf"/><use transform="matrix(0.05,0,0,0.05,22.9,0)" xlink:href="#cc"/></g><g id="ab"><use transform="matrix(0.05,0,0,0.05,0,0)" xlink:href="#bw"/><use transform="matrix(0.05,0,0,0.05,5,0)" xlink:href="#bf"/><use transform="matrix(0.05,0,0,0.05,8.95,0)" xlink:href="#bt"/><use transform="matrix(0.05,0,0,0.05,18.95,0)" xlink:href="#bf"/><use transform="matrix(0.05,0,0,0.05,22.9,0)" xlink:href="#bX"/></g><path fill="#333" d="M149-56L138 0h-32l11-56H2l5-25 144-167h35L154-81h33l-5 25h-33zm-4-147L40-81h82" id="cf"/><g id="ac"><use transform="matrix(0.05,0,0,0.05,0,0)" xlink:href="#bw"/><use transform="matrix(0.05,0,0,0.05,5,0)" xlink:href="#bf"/><use transform="matrix(0.05,0,0,0.05,8.95,0)" xlink:href="#bt"/><use transform="matrix(0.05,0,0,0.05,18.95,0)" xlink:href="#bf"/><use transform="matrix(0.05,0,0,0.05,22.9,0)" xlink:href="#cf"/></g><path fill="#333" d="M151-85c6-55-69-56-94-29H26l34-134h141l-5 27H84l-20 79c41-34 127-11 121 53C199 13 30 38 8-54l29-8C52 0 159-13 151-85" id="cg"/><g id="ad"><use transform="matrix(0.05,0,0,0.05,0,0)" xlink:href="#bw"/><use transform="matrix(0.05,0,0,0.05,5,0)" xlink:href="#bf"/><use transform="matrix(0.05,0,0,0.05,8.95,0)" xlink:href="#bt"/><use transform="matrix(0.05,0,0,0.05,18.95,0)" xlink:href="#bf"/><use transform="matrix(0.05,0,0,0.05,22.9,0)" xlink:href="#cg"/></g><path fill="#333" d="M184-94c-4 58-33 98-90 98-50 0-74-35-74-86 0-94 36-181 136-167 24 3 39 21 44 47l-29 6c-8-40-68-34-87-5-13 20-24 43-30 73 28-51 135-39 130 34zm-73-42c-35 2-61 22-60 62 1 30 14 52 44 52 38 0 55-31 56-70 1-26-14-46-40-44" id="ch"/><g id="ae"><use transform="matrix(0.05,0,0,0.05,0,0)" xlink:href="#bw"/><use transform="matrix(0.05,0,0,0.05,5,0)" xlink:href="#bf"/><use transform="matrix(0.05,0,0,0.05,8.95,0)" xlink:href="#bt"/><use transform="matrix(0.05,0,0,0.05,18.95,0)" xlink:href="#bf"/><use transform="matrix(0.05,0,0,0.05,22.9,0)" xlink:href="#ch"/></g><path fill="#333" d="M206-222l-58 71C115-108 89-62 76 0H43c20-96 77-159 130-221H37l5-27h169" id="ci"/><g id="af"><use transform="matrix(0.05,0,0,0.05,0,0)" xlink:href="#bw"/><use transform="matrix(0.05,0,0,0.05,5,0)" xlink:href="#bf"/><use transform="matrix(0.05,0,0,0.05,8.95,0)" xlink:href="#bt"/><use transform="matrix(0.05,0,0,0.05,18.95,0)" xlink:href="#bf"/><use transform="matrix(0.05,0,0,0.05,22.9,0)" xlink:href="#ci"/></g><path fill="#333" d="M39-185c1-48 36-66 85-66 42 0 74 18 74 59 0 38-25 57-56 64 23 7 40 22 40 52 0 55-39 80-94 80C40 4 10-17 9-63c-1-44 31-60 63-71-20-7-33-25-33-51zm31 3c0 26 17 39 46 39 34 0 48-18 49-48 0-25-18-36-45-36-32 0-50 15-50 45zm79 105c0-29-19-41-50-41-37 0-57 20-57 55 0 29 19 42 49 42 36 0 58-19 58-56" id="cj"/><g id="ag"><use transform="matrix(0.05,0,0,0.05,0,0)" xlink:href="#bw"/><use transform="matrix(0.05,0,0,0.05,5,0)" xlink:href="#bf"/><use transform="matrix(0.05,0,0,0.05,8.95,0)" xlink:href="#bt"/><use transform="matrix(0.05,0,0,0.05,18.95,0)" xlink:href="#bf"/><use transform="matrix(0.05,0,0,0.05,22.9,0)" xlink:href="#cj"/></g><path fill="#333" d="M40-53c7 41 73 38 88 5 14-18 25-43 30-72-13 20-31 35-60 35-44 0-69-27-69-70 0-57 32-96 91-96 58 0 76 44 72 106C186-56 125 37 35-9c-12-6-19-20-23-36zm62-57c67 0 87-116 17-116-39 0-58 29-58 71 1 27 12 45 41 45" id="ck"/><g id="ah"><use transform="matrix(0.05,0,0,0.05,0,0)" xlink:href="#bw"/><use transform="matrix(0.05,0,0,0.05,5,0)" xlink:href="#bf"/><use transform="matrix(0.05,0,0,0.05,8.95,0)" xlink:href="#bt"/><use transform="matrix(0.05,0,0,0.05,18.95,0)" xlink:href="#bf"/><use transform="matrix(0.05,0,0,0.05,22.9,0)" xlink:href="#ck"/></g><g id="ai"><use transform="matrix(0.05,0,0,0.05,0,0)" xlink:href="#bw"/><use transform="matrix(0.05,0,0,0.05,5,0)" xlink:href="#bf"/><use transform="matrix(0.05,0,0,0.05,8.95,0)" xlink:href="#bt"/><use transform="matrix(0.05,0,0,0.05,18.95,0)" xlink:href="#bf"/><use transform="matrix(0.05,0,0,0.05,22.9,0)" xlink:href="#ce"/><use transform="matrix(0.05,0,0,0.05,32.9,0)" xlink:href="#bY"/></g><g id="aj"><use transform="matrix(0.05,0,0,0.05,0,0)" xlink:href="#bs"/><use transform="matrix(0.05,0,0,0.05,10,0)" xlink:href="#bb"/><use transform="matrix(0.05,0,0,0.05,20,0)" xlink:href="#bU"/><use transform="matrix(0.05,0,0,0.05,30,0)" xlink:href="#bu"/><use transform="matrix(0.05,0,0,0.05,39,0)" xlink:href="#be"/><use transform="matrix(0.05,0,0,0.05,49,0)" xlink:href="#bf"/><use transform="matrix(0.05,0,0,0.05,52.95,0)" xlink:href="#bg"/><use transform="matrix(0.05,0,0,0.05,62.95,0)" xlink:href="#bh"/><use transform="matrix(0.05,0,0,0.05,67.95,0)" xlink:href="#bi"/></g><g id="ak"><use transform="matrix(0.05,0,0,0.05,0,0)" xlink:href="#bs"/><use transform="matrix(0.05,0,0,0.05,10,0)" xlink:href="#bb"/><use transform="matrix(0.05,0,0,0.05,20,0)" xlink:href="#bU"/><use transform="matrix(0.05,0,0,0.05,30,0)" xlink:href="#bu"/><use transform="matrix(0.05,0,0,0.05,39,0)" xlink:href="#be"/><use transform="matrix(0.05,0,0,0.05,49,0)" xlink:href="#bf"/><use transform="matrix(0.05,0,0,0.05,52.95,0)" xlink:href="#bb"/></g><g id="al"><use transform="matrix(0.05,0,0,0.05,0,0)" xlink:href="#bs"/><use transform="matrix(0.05,0,0,0.05,10,0)" xlink:href="#bb"/><use transform="matrix(0.05,0,0,0.05,20,0)" xlink:href="#bU"/><use transform="matrix(0.05,0,0,0.05,30,0)" xlink:href="#bu"/><use transform="matrix(0.05,0,0,0.05,39,0)" xlink:href="#be"/><use transform="matrix(0.05,0,0,0.05,49,0)" xlink:href="#by"/><use transform="matrix(0.05,0,0,0.05,52.95,0)" xlink:href="#bs"/><use transform="matrix(0.05,0,0,0.05,62.95,0)" xlink:href="#bz"/><use transform="matrix(0.05,0,0,0.05,71.95,0)" xlink:href="#bs"/><use transform="matrix(0.05,0,0,0.05,81.95,0)" xlink:href="#by"/></g><path d="M51-231l6-30h31l-6 30H51zM33 24C28 60 2 84-40 72c3-12-1-29 18-22C-5 49-1 37 2 19l41-209h32" id="cl"/><g id="am"><use transform="matrix(0.05,0,0,0.05,0,0)" xlink:href="#bK"/><use transform="matrix(0.05,0,0,0.05,14.950000000000001,0)" xlink:href="#bH"/><use transform="matrix(0.05,0,0,0.05,24.950000000000003,0)" xlink:href="#cl"/><use transform="matrix(0.05,0,0,0.05,28.900000000000002,0)" xlink:href="#bJ"/><use transform="matrix(0.05,0,0,0.05,38.900000000000006,0)" xlink:href="#br"/></g></defs></g></svg>